<svg xmlns:xs="http://www.w3.org/2001/XMLSchema"
     xmlns:ru="http://ru-rhetoric.obdurodon.org/rr"
     xmlns="http://www.w3.org/2000/svg"
     height="600"
     viewBox="0 0 610 550">
   <g transform="translate(40 370)">
      <text x="-30" y="-345" font-size="20">40</text>
      <text color="black" x="20" y="-325" text-anchor="middle">36</text>
      <rect x="10" y="-315" height="315" width="20" fill="blue"/>
      <text x="15" y="10" color="black" transform="rotate(45 15 10)">Promise<title/>
      </text>
      <text color="black" x="54" y="-316.25" text-anchor="middle">35</text>
      <rect x="44" y="-306.25" height="306.25" width="20" fill="blue"/>
      <text x="49" y="10" color="black" transform="rotate(45 49 10)">Evidence<title>Use of evidence to prove a point</title>
      </text>
      <text color="black" x="88" y="-281.25" text-anchor="middle">31</text>
      <rect x="78" y="-271.25" height="271.25" width="20" fill="blue"/>
      <text x="83" y="10" color="black" transform="rotate(45 83 10)">Actor Description<title>The way we describe actors or members of a particular society either in a negative, neutral, or positive way.</title>
      </text>
      <text color="black" x="122" y="-237.5" text-anchor="middle">26</text>
      <rect x="112" y="-227.5" height="227.5" width="20" fill="blue"/>
      <text x="117" y="10" color="black" transform="rotate(45 117 10)">Rhetorical question<title/>
      </text>
      <text color="black" x="156" y="-115" text-anchor="middle">12</text>
      <rect x="146" y="-105" height="105" width="20" fill="blue"/>
      <text x="151" y="10" color="black" transform="rotate(45 151 10)">Assumption<title>Making an explicit assumption about something</title>
      </text>
      <text color="black" x="190" y="-88.75" text-anchor="middle">9</text>
      <rect x="180" y="-78.75" height="78.75" width="20" fill="blue"/>
      <text x="185" y="10" color="black" transform="rotate(45 185 10)">Anecdote<title>Using a story to make a point</title>
      </text>
      <text color="black" x="224" y="-88.75" text-anchor="middle">9</text>
      <rect x="214" y="-78.75" height="78.75" width="20" fill="blue"/>
      <text x="219" y="10" color="black" transform="rotate(45 219 10)">National Self-Glorification<title>Using patriotism to represent oneself in a positive light</title>
      </text>
      <text color="black" x="258" y="-71.25" text-anchor="middle">7</text>
      <rect x="248" y="-61.25" height="61.25" width="20" fill="blue"/>
      <text x="253" y="10" color="black" transform="rotate(45 253 10)">Implication<title>Deducing or inferring implicit information</title>
      </text>
      <text color="black" x="292" y="-45" text-anchor="middle">4</text>
      <rect x="282" y="-35" height="35" width="20" fill="blue"/>
      <text x="287" y="10" color="black" transform="rotate(45 287 10)">Irony<title>Saying something and meaning something else</title>
      </text>
      <text color="black" x="326" y="-27.5" text-anchor="middle">2</text>
      <rect x="316" y="-17.5" height="17.5" width="20" fill="blue"/>
      <text x="321" y="10" color="black" transform="rotate(45 321 10)">Authority<title>Reference to authority</title>
      </text>
      <text color="black" x="360" y="-27.5" text-anchor="middle">2</text>
      <rect x="350" y="-17.5" height="17.5" width="20" fill="blue"/>
      <text x="355" y="10" color="black" transform="rotate(45 355 10)">Hyperbole<title>Exaggerating, or "enhancing" meaning</title>
      </text>
      <text color="black" x="394" y="-18.75" text-anchor="middle">1</text>
      <rect x="384" y="-8.75" height="8.75" width="20" fill="blue"/>
      <text x="389" y="10" color="black" transform="rotate(45 389 10)">Vagueness<title>Creating uncertainty and ambiguity</title>
      </text>
      <text color="black" x="428" y="-18.75" text-anchor="middle">1</text>
      <rect x="418" y="-8.75" height="8.75" width="20" fill="blue"/>
      <text x="423" y="10" color="black" transform="rotate(45 423 10)">Sarcasm<title/>
      </text>
      <text color="black" x="462" y="-18.75" text-anchor="middle">1</text>
      <rect x="452" y="-8.75" height="8.75" width="20" fill="blue"/>
      <text x="457" y="10" color="black" transform="rotate(45 457 10)">Polarization<title/>
      </text>
      <text color="black" x="496" y="-18.75" text-anchor="middle">1</text>
      <rect x="486" y="-8.75" height="8.75" width="20" fill="blue"/>
      <text x="491" y="10" color="black" transform="rotate(45 491 10)">Presupposition<title/>
      </text>
      <line x1="0"
            y1="0"
            x2="544"
            y2="0"
            stroke="black"
            stroke-width="2"/>
      <line x1="0"
            y1="0"
            x2="0"
            y2="-360"
            stroke="black"
            stroke-width="2"/>
   </g>
</svg>
