<svg xmlns:xs="http://www.w3.org/2001/XMLSchema"
     xmlns:ru="http://ru-rhetoric.obdurodon.org/rr"
     xmlns="http://www.w3.org/2000/svg"
     height="600"
     viewBox="0 0 600 550">
   <g transform="translate(40 370)">
      <text x="-30" y="-345" font-size="20">90</text>
      <text color="black"
            x="20"
            y="-340.55555555555554"
            text-anchor="middle">85</text>
      <rect x="10"
            y="-330.55555555555554"
            height="330.55555555555554"
            width="20"
            fill="blue"/>
      <text x="15" y="10" color="black" transform="rotate(45 15 10)">Evidence<title>Use of evidence to prove a point</title>
      </text>
      <text color="black"
            x="54"
            y="-204.44444444444443"
            text-anchor="middle">50</text>
      <rect x="44"
            y="-194.44444444444443"
            height="194.44444444444443"
            width="20"
            fill="blue"/>
      <text x="49" y="10" color="black" transform="rotate(45 49 10)">Promise<title/>
      </text>
      <text color="black"
            x="88"
            y="-138.33333333333334"
            text-anchor="middle">33</text>
      <rect x="78"
            y="-128.33333333333334"
            height="128.33333333333334"
            width="20"
            fill="blue"/>
      <text x="83" y="10" color="black" transform="rotate(45 83 10)">Implication<title>Deducing or inferring implicit information</title>
      </text>
      <text color="black"
            x="122"
            y="-118.88888888888889"
            text-anchor="middle">28</text>
      <rect x="112"
            y="-108.88888888888889"
            height="108.88888888888889"
            width="20"
            fill="blue"/>
      <text x="117" y="10" color="black" transform="rotate(45 117 10)">Assumption<title>Making an explicit assumption about something</title>
      </text>
      <text color="black" x="156" y="-80" text-anchor="middle">18</text>
      <rect x="146" y="-70" height="70" width="20" fill="blue"/>
      <text x="151" y="10" color="black" transform="rotate(45 151 10)">Anecdote<title>Using a story to make a point</title>
      </text>
      <text color="black" x="190" y="-80" text-anchor="middle">18</text>
      <rect x="180" y="-70" height="70" width="20" fill="blue"/>
      <text x="185" y="10" color="black" transform="rotate(45 185 10)">Actor Description<title>The way we describe actors or members of a particular society either in a negative, neutral, or positive way.</title>
      </text>
      <text color="black"
            x="224"
            y="-64.44444444444444"
            text-anchor="middle">14</text>
      <rect x="214"
            y="-54.44444444444444"
            height="54.44444444444444"
            width="20"
            fill="blue"/>
      <text x="219" y="10" color="black" transform="rotate(45 219 10)">Polarization<title/>
      </text>
      <text color="black"
            x="258"
            y="-52.77777777777778"
            text-anchor="middle">11</text>
      <rect x="248"
            y="-42.77777777777778"
            height="42.77777777777778"
            width="20"
            fill="blue"/>
      <text x="253" y="10" color="black" transform="rotate(45 253 10)">Consensus Building<title>Constructing a sense of agreement and solidarity between the speaker and others.</title>
      </text>
      <text color="black"
            x="292"
            y="-37.22222222222222"
            text-anchor="middle">7</text>
      <rect x="282"
            y="-27.22222222222222"
            height="27.22222222222222"
            width="20"
            fill="blue"/>
      <text x="287" y="10" color="black" transform="rotate(45 287 10)">Hyperbole<title>Exaggerating, or "enhancing" meaning</title>
      </text>
      <text color="black"
            x="326"
            y="-17.77777777777778"
            text-anchor="middle">2</text>
      <rect x="316"
            y="-7.777777777777778"
            height="7.777777777777778"
            width="20"
            fill="blue"/>
      <text x="321" y="10" color="black" transform="rotate(45 321 10)">Categorization<title>Assigning people to different groups</title>
      </text>
      <text color="black"
            x="360"
            y="-17.77777777777778"
            text-anchor="middle">2</text>
      <rect x="350"
            y="-7.777777777777778"
            height="7.777777777777778"
            width="20"
            fill="blue"/>
      <text x="355" y="10" color="black" transform="rotate(45 355 10)">Vagueness<title>Creating uncertainty and ambiguity</title>
      </text>
      <text color="black"
            x="394"
            y="-13.88888888888889"
            text-anchor="middle">1</text>
      <rect x="384"
            y="-3.888888888888889"
            height="3.888888888888889"
            width="20"
            fill="blue"/>
      <text x="389" y="10" color="black" transform="rotate(45 389 10)">National Self-Glorification<title>Using patriotism to represent oneself in a positive light</title>
      </text>
      <text color="black"
            x="428"
            y="-13.88888888888889"
            text-anchor="middle">1</text>
      <rect x="418"
            y="-3.888888888888889"
            height="3.888888888888889"
            width="20"
            fill="blue"/>
      <text x="423" y="10" color="black" transform="rotate(45 423 10)">Authority<title>Reference to authority</title>
      </text>
      <line x1="0"
            y1="0"
            x2="476"
            y2="0"
            stroke="black"
            stroke-width="2"/>
      <line x1="0"
            y1="0"
            x2="0"
            y2="-360"
            stroke="black"
            stroke-width="2"/>
   </g>
</svg>
